<mxfile host="app.diagrams.net" agent="Mozilla/5.0 (Windows NT 10.0; Win64; x64; rv:137.0) Gecko/20100101 Firefox/137.0" version="26.2.13">
  <diagram id="C5RBs43oDa-KdzZeNtuy" name="Page-1">
    <mxGraphModel dx="2895" dy="751" grid="1" gridSize="10" guides="1" tooltips="1" connect="1" arrows="1" fold="1" page="1" pageScale="1" pageWidth="827" pageHeight="1169" math="0" shadow="0">
      <root>
        <mxCell id="WIyWlLk6GJQsqaUBKTNV-0" />
        <mxCell id="WIyWlLk6GJQsqaUBKTNV-1" parent="WIyWlLk6GJQsqaUBKTNV-0" />
        <mxCell id="uierBS24uX779-OyEKdF-0" value="L&#39;utilisateur crée&#xa;un nouveau dialogue" style="whiteSpace=wrap;strokeWidth=2;" vertex="1" parent="WIyWlLk6GJQsqaUBKTNV-1">
          <mxGeometry x="-80" y="110" width="200" height="78" as="geometry" />
        </mxCell>
        <mxCell id="uierBS24uX779-OyEKdF-1" value="Statut : PENDING" style="whiteSpace=wrap;strokeWidth=2;fillColor=#ffe6cc;strokeColor=#d79b00;" vertex="1" parent="WIyWlLk6GJQsqaUBKTNV-1">
          <mxGeometry x="233" y="110" width="182" height="54" as="geometry" />
        </mxCell>
        <mxCell id="uierBS24uX779-OyEKdF-2" value="L&#39;utilisateur publie un message" style="whiteSpace=wrap;strokeWidth=2;" vertex="1" parent="WIyWlLk6GJQsqaUBKTNV-1">
          <mxGeometry x="529" y="120" width="260" height="78" as="geometry" />
        </mxCell>
        <mxCell id="uierBS24uX779-OyEKdF-3" value="Message non-lu visible par les agents support" style="whiteSpace=wrap;strokeWidth=2;" vertex="1" parent="WIyWlLk6GJQsqaUBKTNV-1">
          <mxGeometry x="529" y="230" width="260" height="78" as="geometry" />
        </mxCell>
        <mxCell id="uierBS24uX779-OyEKdF-4" value="Un agent support se connecte au dialogue" style="whiteSpace=wrap;strokeWidth=2;" vertex="1" parent="WIyWlLk6GJQsqaUBKTNV-1">
          <mxGeometry x="529" y="350" width="260" height="78" as="geometry" />
        </mxCell>
        <mxCell id="uierBS24uX779-OyEKdF-5" value="Statut : OPEN" style="whiteSpace=wrap;strokeWidth=2;fillColor=#dae8fc;strokeColor=#6c8ebf;" vertex="1" parent="WIyWlLk6GJQsqaUBKTNV-1">
          <mxGeometry x="579" y="480" width="158" height="54" as="geometry" />
        </mxCell>
        <mxCell id="uierBS24uX779-OyEKdF-6" value="Le message passe en statut lu" style="whiteSpace=wrap;strokeWidth=2;" vertex="1" parent="WIyWlLk6GJQsqaUBKTNV-1">
          <mxGeometry x="180" y="198" width="260" height="78" as="geometry" />
        </mxCell>
        <mxCell id="uierBS24uX779-OyEKdF-9" value="Inactivité &gt; 1 h" style="whiteSpace=wrap;strokeWidth=2;" vertex="1" parent="WIyWlLk6GJQsqaUBKTNV-1">
          <mxGeometry x="282" y="420" width="168" height="54" as="geometry" />
        </mxCell>
        <mxCell id="uierBS24uX779-OyEKdF-10" value="Statut : CLOSED" style="whiteSpace=wrap;strokeWidth=2;fillColor=#f5f5f5;fontColor=#333333;strokeColor=#666666;" vertex="1" parent="WIyWlLk6GJQsqaUBKTNV-1">
          <mxGeometry x="145" y="510" width="174" height="54" as="geometry" />
        </mxCell>
        <mxCell id="uierBS24uX779-OyEKdF-11" value="L&#39;utilisateur consulte&#xa;un dialogue CLOSED" style="whiteSpace=wrap;strokeWidth=2;" vertex="1" parent="WIyWlLk6GJQsqaUBKTNV-1">
          <mxGeometry x="-80" y="276" width="200" height="78" as="geometry" />
        </mxCell>
        <mxCell id="uierBS24uX779-OyEKdF-12" value="" style="curved=1;startArrow=none;endArrow=block;exitX=1;exitY=0.5;entryX=0;entryY=0.5;rounded=0;exitDx=0;exitDy=0;entryDx=0;entryDy=0;" edge="1" parent="WIyWlLk6GJQsqaUBKTNV-1" source="uierBS24uX779-OyEKdF-0" target="uierBS24uX779-OyEKdF-1">
          <mxGeometry relative="1" as="geometry">
            <Array as="points">
              <mxPoint x="170" y="120" />
            </Array>
          </mxGeometry>
        </mxCell>
        <mxCell id="uierBS24uX779-OyEKdF-13" value="" style="curved=1;startArrow=none;endArrow=block;exitX=1;exitY=0.5;entryX=0;entryY=0.25;rounded=0;exitDx=0;exitDy=0;entryDx=0;entryDy=0;" edge="1" parent="WIyWlLk6GJQsqaUBKTNV-1" source="uierBS24uX779-OyEKdF-1" target="uierBS24uX779-OyEKdF-2">
          <mxGeometry relative="1" as="geometry">
            <Array as="points" />
          </mxGeometry>
        </mxCell>
        <mxCell id="uierBS24uX779-OyEKdF-14" value="" style="curved=1;startArrow=none;endArrow=block;exitX=0.5;exitY=1;entryX=0.5;entryY=0;rounded=0;" edge="1" parent="WIyWlLk6GJQsqaUBKTNV-1" source="uierBS24uX779-OyEKdF-2" target="uierBS24uX779-OyEKdF-3">
          <mxGeometry relative="1" as="geometry">
            <Array as="points" />
          </mxGeometry>
        </mxCell>
        <mxCell id="uierBS24uX779-OyEKdF-15" value="" style="curved=1;startArrow=none;endArrow=block;exitX=0.5;exitY=1;entryX=0.5;entryY=0;rounded=0;" edge="1" parent="WIyWlLk6GJQsqaUBKTNV-1" source="uierBS24uX779-OyEKdF-3" target="uierBS24uX779-OyEKdF-4">
          <mxGeometry relative="1" as="geometry">
            <Array as="points" />
          </mxGeometry>
        </mxCell>
        <mxCell id="uierBS24uX779-OyEKdF-16" value="" style="curved=1;startArrow=none;endArrow=block;exitX=0.5;exitY=1;entryX=0.5;entryY=0;rounded=0;" edge="1" parent="WIyWlLk6GJQsqaUBKTNV-1" source="uierBS24uX779-OyEKdF-4" target="uierBS24uX779-OyEKdF-5">
          <mxGeometry relative="1" as="geometry">
            <Array as="points" />
          </mxGeometry>
        </mxCell>
        <mxCell id="uierBS24uX779-OyEKdF-17" value="" style="curved=1;startArrow=none;endArrow=block;exitX=0;exitY=0.25;entryX=1;entryY=0.75;rounded=0;entryDx=0;entryDy=0;exitDx=0;exitDy=0;" edge="1" parent="WIyWlLk6GJQsqaUBKTNV-1" source="uierBS24uX779-OyEKdF-5" target="uierBS24uX779-OyEKdF-6">
          <mxGeometry relative="1" as="geometry">
            <Array as="points">
              <mxPoint x="510" y="450" />
              <mxPoint x="480" y="300" />
            </Array>
          </mxGeometry>
        </mxCell>
        <mxCell id="uierBS24uX779-OyEKdF-18" value="" style="curved=1;startArrow=none;endArrow=block;exitX=0.5;exitY=1;entryX=0.5;entryY=0;rounded=0;entryDx=0;entryDy=0;entryPerimeter=0;" edge="1" parent="WIyWlLk6GJQsqaUBKTNV-1" source="uierBS24uX779-OyEKdF-6" target="uierBS24uX779-OyEKdF-29">
          <mxGeometry relative="1" as="geometry">
            <Array as="points" />
            <mxPoint x="310" y="300" as="targetPoint" />
          </mxGeometry>
        </mxCell>
        <mxCell id="uierBS24uX779-OyEKdF-19" value="a" style="curved=1;startArrow=none;endArrow=block;exitX=0.3;exitY=0.644;entryX=0.5;entryY=0;rounded=0;exitDx=0;exitDy=0;entryDx=0;entryDy=0;exitPerimeter=0;" edge="1" parent="WIyWlLk6GJQsqaUBKTNV-1" source="uierBS24uX779-OyEKdF-29" target="uierBS24uX779-OyEKdF-25">
          <mxGeometry relative="1" as="geometry">
            <Array as="points">
              <mxPoint x="190" y="400" />
            </Array>
            <mxPoint x="245" y="378" as="sourcePoint" />
          </mxGeometry>
        </mxCell>
        <mxCell id="uierBS24uX779-OyEKdF-20" value="b" style="curved=1;startArrow=none;endArrow=block;exitX=0.654;exitY=0.667;entryX=0.5;entryY=0;rounded=0;exitDx=0;exitDy=0;exitPerimeter=0;" edge="1" parent="WIyWlLk6GJQsqaUBKTNV-1" source="uierBS24uX779-OyEKdF-29" target="uierBS24uX779-OyEKdF-9">
          <mxGeometry relative="1" as="geometry">
            <Array as="points">
              <mxPoint x="374" y="410" />
            </Array>
            <mxPoint x="375" y="378" as="sourcePoint" />
          </mxGeometry>
        </mxCell>
        <mxCell id="uierBS24uX779-OyEKdF-21" value="" style="curved=1;startArrow=none;endArrow=block;exitX=0.5;exitY=1;entryX=0.293;entryY=-0.019;rounded=0;entryDx=0;entryDy=0;entryPerimeter=0;exitDx=0;exitDy=0;" edge="1" parent="WIyWlLk6GJQsqaUBKTNV-1" source="uierBS24uX779-OyEKdF-25" target="uierBS24uX779-OyEKdF-10">
          <mxGeometry relative="1" as="geometry">
            <Array as="points">
              <mxPoint x="160" y="500" />
            </Array>
          </mxGeometry>
        </mxCell>
        <mxCell id="uierBS24uX779-OyEKdF-22" value="" style="curved=1;startArrow=none;endArrow=block;exitX=0.5;exitY=1;entryX=0.89;entryY=0;rounded=0;" edge="1" parent="WIyWlLk6GJQsqaUBKTNV-1" source="uierBS24uX779-OyEKdF-9" target="uierBS24uX779-OyEKdF-10">
          <mxGeometry relative="1" as="geometry">
            <Array as="points">
              <mxPoint x="350" y="500" />
            </Array>
          </mxGeometry>
        </mxCell>
        <mxCell id="uierBS24uX779-OyEKdF-23" value="" style="curved=1;startArrow=none;endArrow=block;exitX=0;exitY=0.5;entryX=0.5;entryY=1;rounded=0;entryDx=0;entryDy=0;exitDx=0;exitDy=0;" edge="1" parent="WIyWlLk6GJQsqaUBKTNV-1" source="uierBS24uX779-OyEKdF-10" target="uierBS24uX779-OyEKdF-11">
          <mxGeometry relative="1" as="geometry">
            <Array as="points">
              <mxPoint x="10" y="490" />
            </Array>
            <mxPoint x="1148" y="595" as="sourcePoint" />
            <mxPoint x="319" y="120" as="targetPoint" />
          </mxGeometry>
        </mxCell>
        <mxCell id="uierBS24uX779-OyEKdF-24" value="Nouveau message" style="curved=1;startArrow=none;endArrow=block;exitX=0.75;exitY=0;entryX=0;entryY=0.5;rounded=0;exitDx=0;exitDy=0;entryDx=0;entryDy=0;" edge="1" parent="WIyWlLk6GJQsqaUBKTNV-1" source="uierBS24uX779-OyEKdF-11" target="uierBS24uX779-OyEKdF-1">
          <mxGeometry x="-0.3307" y="-10" relative="1" as="geometry">
            <Array as="points">
              <mxPoint x="120" y="190" />
            </Array>
            <mxPoint as="offset" />
          </mxGeometry>
        </mxCell>
        <mxCell id="uierBS24uX779-OyEKdF-25" value="déconnexion" style="whiteSpace=wrap;strokeWidth=2;" vertex="1" parent="WIyWlLk6GJQsqaUBKTNV-1">
          <mxGeometry x="92" y="420" width="168" height="54" as="geometry" />
        </mxCell>
        <mxCell id="uierBS24uX779-OyEKdF-26" value="&lt;b&gt;&lt;font style=&quot;font-size: 14px;&quot;&gt;1&lt;/font&gt;&lt;/b&gt;" style="ellipse;whiteSpace=wrap;html=1;aspect=fixed;fillColor=#e51400;fontColor=#ffffff;strokeColor=#B20000;" vertex="1" parent="WIyWlLk6GJQsqaUBKTNV-1">
          <mxGeometry x="770" y="222" width="30" height="30" as="geometry" />
        </mxCell>
        <mxCell id="uierBS24uX779-OyEKdF-28" value="&lt;b&gt;&lt;font style=&quot;font-size: 14px;&quot;&gt;1&lt;/font&gt;&lt;/b&gt;" style="ellipse;whiteSpace=wrap;html=1;aspect=fixed;fillColor=#fad9d5;strokeColor=light-dark(#ffffff, #ec8f82);fillStyle=hatch;gradientColor=light-dark(#ff0000, #ededed);gradientDirection=north;opacity=50;" vertex="1" parent="WIyWlLk6GJQsqaUBKTNV-1">
          <mxGeometry x="420" y="192" width="30" height="30" as="geometry" />
        </mxCell>
        <mxCell id="uierBS24uX779-OyEKdF-29" value="poursuite du dialogue" style="shape=callout;whiteSpace=wrap;html=1;perimeter=calloutPerimeter;position2=0.95;base=20;size=30;position=0.79;rounded=1;strokeWidth=2;fillColor=#BCECFF;strokeColor=#10739e;gradientColor=light-dark(#c0c0c0, #ededed);gradientDirection=west;" vertex="1" parent="WIyWlLk6GJQsqaUBKTNV-1">
          <mxGeometry x="180" y="310" width="260" height="90" as="geometry" />
        </mxCell>
      </root>
    </mxGraphModel>
  </diagram>
</mxfile>
